<?xml version="1.0" ?><svg viewBox="0 0 64 64" xmlns="http://www.w3.org/2000/svg" ><g id="Bubbles"><path d="M24.9,8.62a13.15,13.15,0,0,0-8,25.05,12.93,12.93,0,0,0,4,.63,13.19,13.19,0,0,0,12.54-9.15h0A13.17,13.17,0,0,0,24.9,8.62Zm6.62,15.92A11.15,11.15,0,1,1,20.91,10a11,11,0,0,1,3.38.53A11.16,11.16,0,0,1,31.52,24.54Z"/><path d="M35.3,34.41a9.49,9.49,0,0,0,9.48,9.47h0a9.48,9.48,0,1,0-9.48-9.47Zm9.48-7.48a7.48,7.48,0,0,1,0,15h0a7.48,7.48,0,1,1,0-15Z"/><path d="M17,49.47A8.54,8.54,0,0,0,25.51,58h0A8.54,8.54,0,1,0,17,49.47Zm15.07,0A6.54,6.54,0,0,1,25.51,56h0a6.54,6.54,0,1,1,6.54-6.53Z"/><path d="M39.81,35.1a1,1,0,0,0,1-1,3.73,3.73,0,0,1,3.73-3.73,1,1,0,0,0,0-2,5.74,5.74,0,0,0-5.73,5.73A1,1,0,0,0,39.81,35.1Z"/><path d="M18.79,27.76a6.87,6.87,0,0,1-4.44-4.3,1,1,0,0,0-1.89.66,8.9,8.9,0,0,0,5.72,5.55,1,1,0,0,0,.3,0,1,1,0,0,0,.31-2Z"/><path d="M24.51,45a1,1,0,0,0,1,1,3.5,3.5,0,0,1,3.5,3.5,1,1,0,0,0,2,0,5.51,5.51,0,0,0-5.5-5.5A1,1,0,0,0,24.51,45Z"/><path d="M24.32,11.67A3.68,3.68,0,1,0,26.7,16.3h0A3.68,3.68,0,0,0,24.32,11.67Zm.48,4a1.68,1.68,0,1,1-1.09-2.11A1.68,1.68,0,0,1,24.8,15.69Z"/><path d="M47.57,17a3.24,3.24,0,1,0-3.24,3.24A3.25,3.25,0,0,0,47.57,17Zm-4.48,0a1.24,1.24,0,1,1,1.24,1.24A1.24,1.24,0,0,1,43.09,17Z"/><path d="M33.12,36.17A2.86,2.86,0,1,0,30.26,39,2.86,2.86,0,0,0,33.12,36.17Zm-3.72,0a.86.86,0,1,1,.86.86A.86.86,0,0,1,29.4,36.17Z"/><path d="M39.88,52.31a3.65,3.65,0,1,0-3.64-3.64A3.64,3.64,0,0,0,39.88,52.31Zm0-5.29a1.65,1.65,0,1,1-1.64,1.65A1.65,1.65,0,0,1,39.88,47Z"/></g></svg>