<?xml version="1.0" encoding="UTF-8" standalone="no"?>
<svg
   sodipodi:docname="29 - Door Card.svg"
   inkscape:version="1.1.1 (1:1.1+202109281949+c3084ef5ed)"
   id="svg831"
   version="1.1"
   viewBox="0 0 22.577778 22.577778"
   height="64pt"
   width="64pt"
   inkscape:export-filename="/media/taufikramadhan/Data/Tr Design Studio/Project Design/TR Creative Design/Icon Design/Project Hiring/Icon Icons/009 -  Hotel And Holidays/Send/1 - Line/SVG/29 - Door Card.png"
   inkscape:export-xdpi="576"
   inkscape:export-ydpi="576"
   xmlns:inkscape="http://www.inkscape.org/namespaces/inkscape"
   xmlns:sodipodi="http://sodipodi.sourceforge.net/DTD/sodipodi-0.dtd"
   xmlns="http://www.w3.org/2000/svg"
   xmlns:svg="http://www.w3.org/2000/svg"
   xmlns:rdf="http://www.w3.org/1999/02/22-rdf-syntax-ns#"
   xmlns:cc="http://creativecommons.org/ns#"
   xmlns:dc="http://purl.org/dc/elements/1.1/">
  <defs
     id="defs825">
    <pattern
       y="0"
       x="0"
       height="6"
       width="6"
       patternUnits="userSpaceOnUse"
       id="EMFhbasepattern" />
    <pattern
       y="0"
       x="0"
       height="6"
       width="6"
       patternUnits="userSpaceOnUse"
       id="EMFhbasepattern-9" />
    <pattern
       y="0"
       x="0"
       height="6"
       width="6"
       patternUnits="userSpaceOnUse"
       id="EMFhbasepattern-0" />
    <pattern
       y="0"
       x="0"
       height="6"
       width="6"
       patternUnits="userSpaceOnUse"
       id="EMFhbasepattern-7" />
    <pattern
       y="0"
       x="0"
       height="6"
       width="6"
       patternUnits="userSpaceOnUse"
       id="EMFhbasepattern-2" />
    <pattern
       y="0"
       x="0"
       height="6"
       width="6"
       patternUnits="userSpaceOnUse"
       id="EMFhbasepattern-98" />
    <pattern
       y="0"
       x="0"
       height="6"
       width="6"
       patternUnits="userSpaceOnUse"
       id="EMFhbasepattern-6" />
    <pattern
       y="0"
       x="0"
       height="6"
       width="6"
       patternUnits="userSpaceOnUse"
       id="EMFhbasepattern-01" />
    <pattern
       y="0"
       x="0"
       height="6"
       width="6"
       patternUnits="userSpaceOnUse"
       id="EMFhbasepattern-07" />
    <pattern
       y="0"
       x="0"
       height="6"
       width="6"
       patternUnits="userSpaceOnUse"
       id="EMFhbasepattern-8" />
    <pattern
       y="0"
       x="0"
       height="6"
       width="6"
       patternUnits="userSpaceOnUse"
       id="EMFhbasepattern-4" />
    <pattern
       y="0"
       x="0"
       height="6"
       width="6"
       patternUnits="userSpaceOnUse"
       id="EMFhbasepattern-40" />
    <pattern
       y="0"
       x="0"
       height="6"
       width="6"
       patternUnits="userSpaceOnUse"
       id="EMFhbasepattern-08" />
    <pattern
       y="0"
       x="0"
       height="6"
       width="6"
       patternUnits="userSpaceOnUse"
       id="EMFhbasepattern-04" />
    <pattern
       y="0"
       x="0"
       height="6"
       width="6"
       patternUnits="userSpaceOnUse"
       id="EMFhbasepattern-014" />
    <pattern
       y="0"
       x="0"
       height="6"
       width="6"
       patternUnits="userSpaceOnUse"
       id="EMFhbasepattern-27" />
    <pattern
       y="0"
       x="0"
       height="6"
       width="6"
       patternUnits="userSpaceOnUse"
       id="EMFhbasepattern-09" />
    <pattern
       y="0"
       x="0"
       height="6"
       width="6"
       patternUnits="userSpaceOnUse"
       id="EMFhbasepattern-5" />
    <pattern
       y="0"
       x="0"
       height="6"
       width="6"
       patternUnits="userSpaceOnUse"
       id="EMFhbasepattern-018" />
  </defs>
  <sodipodi:namedview
     inkscape:document-rotation="0"
     inkscape:snap-global="true"
     inkscape:snap-nodes="false"
     inkscape:bbox-nodes="true"
     inkscape:snap-bbox="true"
     showguides="false"
     inkscape:snap-midpoints="true"
     inkscape:snap-smooth-nodes="true"
     inkscape:snap-intersection-paths="true"
     inkscape:object-paths="true"
     inkscape:showpageshadow="false"
     inkscape:pagecheckerboard="true"
     inkscape:window-maximized="1"
     inkscape:window-y="31"
     inkscape:window-x="0"
     inkscape:window-height="705"
     inkscape:window-width="1366"
     units="pt"
     showgrid="false"
     inkscape:current-layer="layer1"
     inkscape:document-units="pt"
     inkscape:cy="42.778201"
     inkscape:cx="42.665627"
     inkscape:zoom="4.4415145"
     inkscape:pageshadow="2"
     inkscape:pageopacity="0.0"
     borderopacity="1.0"
     bordercolor="#666666"
     pagecolor="#ffffff"
     id="base">
    <inkscape:grid
       id="grid1378"
       type="xygrid" />
    <sodipodi:guide
       inkscape:locked="false"
       id="guide1380"
       orientation="78.000048,0"
       position="0.97013831,21.607643" />
    <sodipodi:guide
       inkscape:locked="false"
       id="guide1382"
       orientation="0,78.000005"
       position="0.97013831,0.97013129" />
    <sodipodi:guide
       inkscape:locked="false"
       id="guide1384"
       orientation="-78.000048,0"
       position="21.607639,0.97013129" />
    <sodipodi:guide
       inkscape:locked="false"
       id="guide1386"
       orientation="0,-78.000005"
       position="21.607639,21.607643" />
  </sodipodi:namedview>
  <metadata
     id="metadata828">
    <rdf:RDF>
      <cc:Work
         rdf:about="">
        <dc:format>image/svg+xml</dc:format>
        <dc:type
           rdf:resource="http://purl.org/dc/dcmitype/StillImage" />
      </cc:Work>
    </rdf:RDF>
  </metadata>
  <g
     transform="translate(0,-274.42223)"
     id="layer1"
     inkscape:groupmode="layer"
     inkscape:label="Icon">
    <path
       id="rect126206"
       style="color:#000000;display:inline;fill:#000000;stroke-width:1;stroke-linecap:round;stroke-linejoin:round;stroke-miterlimit:1.5;-inkscape-stroke:none"
       d="m 13.653387,278.88614 h -0.532452 c -0.455252,0 -0.833457,0.37822 -0.833457,0.83347 v 11.98307 c 0,0.45524 0.378205,0.83345 0.833457,0.83345 h 0.532452 c 0.155733,0.75635 0.829032,1.32884 1.629857,1.32884 0.800827,0 1.475604,-0.57249 1.63181,-1.32884 h 0.532451 c 0.455253,0 0.833455,-0.37821 0.833455,-0.83345 v -5.16003 h 0.331565 c 0.187774,0 0.334161,0.14639 0.334161,0.33415 v 0.66639 c 0,0.54746 0.449831,0.99729 0.997291,0.99729 h 0.666375 c 0.547456,0 0.997287,-0.44983 0.997287,-0.99729 v -6.7e-4 -6.7e-4 -6.6e-4 -6.7e-4 l -0.0072,-1.3295 c -0.0081,-1.28535 -1.058967,-2.332 -2.344344,-2.332 h -0.975156 v -4.15947 c 0,-0.45526 -0.378202,-0.83347 -0.833456,-0.83347 h -0.53245 c -0.156207,-0.75635 -0.830983,-1.32884 -1.631805,-1.32882 -0.800824,4e-5 -1.474123,0.57253 -1.629856,1.32888 z m 2.961318,12.98361 c -0.183075,6.6e-4 -0.331206,0.14914 -0.331562,0.33221 0,0.55545 -0.444441,0.9973 -0.999889,0.9973 -0.555446,0 -0.997937,-0.44185 -0.997937,-0.9973 -3.33e-4,-0.18307 -0.14849,-0.3315 -0.331565,-0.33221 h -0.832803 c -0.09798,0 -0.167081,-0.0691 -0.167081,-0.16707 v -11.98307 c 0,-0.098 0.06911,-0.16708 0.167081,-0.16708 h 0.83279 c 0.183074,-6.7e-4 0.331208,-0.14915 0.331565,-0.33222 0,-0.55545 0.44249,-0.99988 0.99794,-0.99988 0.555448,0 0.999889,0.44443 0.999889,0.99988 3.34e-4,0.18307 0.148491,0.3315 0.331562,0.33222 h 0.832806 c 0.09798,0 0.167081,0.0691 0.167081,0.16708 v 4.15948 h -1.336655 c -0.278207,-0.20801 -0.622872,-0.33155 -0.994687,-0.33155 -0.91523,0 -1.663662,0.74842 -1.663662,1.66365 0,0.91523 0.748432,1.66561 1.663662,1.66561 0.372993,0 0.718621,-0.12442 0.99729,-0.33415 h 1.334052 v 5.16003 c 0,0.098 -0.06912,0.16707 -0.167081,0.16707 z M 3.6336937,279.55253 c -0.5474764,0 -0.9979397,0.45241 -0.9979397,0.99988 v 0.83021 H 1.8029475 c -0.4552632,0 -0.83280966,0.3782 -0.83280966,0.83346 v 7.32234 c 0,0.45526 0.37754646,0.8328 0.83280966,0.8328 H 2.635754 v 0.83281 c 0,0.54747 0.4504633,0.99793 0.9979397,0.99793 h 6.9907693 c 0.547474,0 0.997288,-0.45046 0.997288,-0.99793 v -10.65162 c 0,-0.54747 -0.449814,-0.99988 -0.997288,-0.99988 z m 1.3314517,10.81869 v 0.16708 c 6.657e-4,0.18307 0.1491359,0.3312 0.3322106,0.33156 0.1838368,6.7e-4 0.3334453,-0.14772 0.3341643,-0.33156 v -9.32016 c 6.658e-4,-0.18486 -0.1493123,-0.33489 -0.3341643,-0.33416 -0.1840899,3.2e-4 -0.3329296,0.15007 -0.3322106,0.33416 v 0.16448 H 3.3021156 v -0.8302 c 0,-0.19018 0.1413935,-0.33416 0.3315648,-0.33416 l 6.9907826,-2e-5 c 0.190169,0 0.331562,0.144 0.331562,0.33417 v 10.65162 c 0,0.19017 -0.141393,0.33156 -0.331562,0.33156 H 3.6336937 c -0.1901713,0 -0.3315648,-0.14139 -0.3315648,-0.33156 v -0.83281 c 0.55434,0 1.1086766,0 1.6630165,0 z m 1.9978267,-9.15308 c -0.363047,0 -0.6657259,0.30267 -0.6657259,0.66572 v 0.99795 c 0,0.36304 0.3026789,0.66573 0.6657259,0.66573 h 2.6635521 c 0.3630472,0 0.6637758,-0.30269 0.6637758,-0.66573 v -0.99795 c 0,-0.36305 -0.3007286,-0.66572 -0.6637758,-0.66572 z m 0,0.66572 h 0.9979397 v 0.99795 H 6.9629721 Z m 1.6636656,0 h 0.9998865 v 0.99795 H 8.6266377 Z m -6.8236902,0.16513 h 1.8307462 v 7.65651 H 1.8029475 c -0.097968,0 -0.1670839,-0.0691 -0.1670839,-0.16708 v -7.32234 c 0,-0.098 0.069113,-0.16709 0.1670839,-0.16709 z m 2.496472,0 h 0.4986421 c 0.097965,0 0.1670838,0.0691 0.1670838,0.16709 v 7.32234 c 0,0.098 -0.069116,0.16708 -0.1670838,0.16708 H 4.2994195 Z m -1.6636655,0.50125 c -0.1838368,-6.6e-4 -0.3334488,0.14773 -0.3341645,0.33157 v 0.66573 c 6.658e-4,0.18383 0.1503277,0.33228 0.3341645,0.33155 0.1830745,-3.3e-4 0.3314981,-0.14848 0.3322138,-0.33155 v -0.66573 C 2.9673021,282.69873 2.8188285,282.5506 2.635754,282.55024 Z m 12.64749,1.66301 c 0.246505,0 0.470601,0.0879 0.644272,0.2334 0.0049,0.004 0.0098,0.009 0.01495,0.0126 0.209128,0.18216 0.340665,0.45026 0.340665,0.75219 0,0.29023 -0.121441,0.54995 -0.31661,0.73204 -0.01612,0.0113 -0.03112,0.0252 -0.04486,0.0396 -0.172785,0.14279 -0.394902,0.2282 -0.638421,0.2282 -0.555445,0 -0.997936,-0.44445 -0.997936,-0.9999 0,-0.55545 0.442491,-0.99793 0.997936,-0.99793 z m -12.64749,0.33222 c -0.1848521,-6.7e-4 -0.3348901,0.14931 -0.3341645,0.33416 v 0.33156 c -6.656e-4,0.18486 0.1493124,0.3349 0.3341645,0.33417 0.1840898,-3.3e-4 0.3329328,-0.15008 0.3322138,-0.33417 v -0.33156 c 6.658e-4,-0.18408 -0.148124,-0.33381 -0.3322138,-0.33416 z m 4.3272181,0 c -0.363047,0 -0.6657259,0.30268 -0.6657259,0.66572 v 0.9999 c 0,0.36305 0.3026789,0.66571 0.6657259,0.66571 h 2.6635521 c 0.3630472,0 0.6637758,-0.30266 0.6637758,-0.66571 v -0.9999 c 0,-0.36304 -0.3007286,-0.66572 -0.6637758,-0.66572 z m 9.8461109,0 h 2.447062 c 0.927066,0 1.67217,0.74115 1.677969,1.66821 l 0.0078,1.32951 c 0,0.19024 -0.141321,0.33156 -0.331562,0.33156 h -0.666375 c -0.190241,0 -0.331565,-0.14132 -0.331565,-0.33156 v -0.66639 c 0,-0.54756 -0.452324,-0.99988 -0.999887,-0.99988 h -1.803442 c 0.09002,-0.2043 0.139776,-0.4294 0.139776,-0.66573 0,-0.23632 -0.04977,-0.46167 -0.139776,-0.66572 z m -9.8461109,0.66572 h 0.9979397 v 0.9999 H 6.9629721 Z m 1.6636656,0 h 0.9998865 v 0.9999 H 8.6266377 Z m 6.6306013,2.332 c -0.535921,0.0137 -0.971933,0.45826 -0.971933,0.99729 0,0.43148 0.279306,0.80285 0.665727,0.94072 v 0.72293 c -6.66e-4,0.1841 0.148121,0.33382 0.332211,0.33417 0.184851,6.7e-4 0.334889,-0.14931 0.334164,-0.33417 v -0.72423 c 0.385851,-0.13854 0.665725,-0.50882 0.665725,-0.93942 0,-0.54757 -0.452327,-0.99729 -0.999889,-0.99729 -0.0086,0 -0.01751,-2.2e-4 -0.02599,0 z m -8.2942669,0.66312 c -0.363047,0 -0.6657259,0.30267 -0.6657259,0.66572 v 1.00054 c 0,0.36305 0.3026789,0.66573 0.6657259,0.66573 h 2.6635521 c 0.3630472,0 0.6637758,-0.30268 0.6637758,-0.66573 v -1.00054 c 0,-0.36305 -0.3007286,-0.66572 -0.6637758,-0.66572 z m 8.3202719,0 c 0.187777,0 0.334164,0.14638 0.334164,0.33417 0,0.18775 -0.146387,0.33155 -0.334164,0.33155 -0.187779,0 -0.332211,-0.1438 -0.332211,-0.33155 0,-0.18779 0.144432,-0.33417 0.332211,-0.33417 z m -8.3202719,0.66572 h 0.9979397 v 1.00054 H 6.9629721 Z m 1.6636656,0 h 0.9998865 v 1.00054 H 8.6266377 Z"
       sodipodi:nodetypes="csssscscsscsssssscccccscsscccccscccsscccccccsccsssccsccsscsssscssssssscccccccccsccsssssccsssssssssccccccccccsccsssscsssscccccccccsccsccsssscccccccssssssssscsccssssscsscccccccccccsscccccsssssssssssssssssscccccccccc" />
  </g>
</svg>
