<svg xmlns="http://www.w3.org/2000/svg" viewBox="0 0 64 64"><defs><style>.cls-1{fill:#000;}.cls-2{fill:#000;}</style></defs><title>Wireframe</title><g id="Layer_2" data-name="Layer 2"><g id="Layer_1-2" data-name="Layer 1"><rect class="cls-1" x="4" width="4" height="64" rx="2" ry="2"/><rect class="cls-1" x="56" width="4" height="64" rx="2" ry="2"/><rect class="cls-1" x="42" width="4" height="64" rx="2" ry="2"/><rect class="cls-1" x="34" width="4" height="64" rx="2" ry="2"/><rect class="cls-1" x="30" y="-26" width="4" height="64" rx="2" ry="2" transform="translate(38 -26) rotate(90)"/><rect class="cls-1" x="30" y="-10" width="4" height="64" rx="2" ry="2" transform="translate(54 -10) rotate(90)"/><rect class="cls-1" x="30" y="-2" width="4" height="64" rx="2" ry="2" transform="translate(62 -2) rotate(90)"/><rect class="cls-1" x="30" y="26" width="4" height="64" rx="2" ry="2" transform="translate(90 26) rotate(90)"/><path class="cls-2" d="M4,28V60H38V28ZM34,56H8V32H34Z"/><path class="cls-2" d="M42,28V60H60V28ZM56,56H46V32H56Z"/><path class="cls-2" d="M4,4V24H60V4ZM56,20H8V8H56Z"/></g></g></svg>