<?xml version="1.0" standalone="no"?>
<!DOCTYPE svg PUBLIC "-//W3C//DTD SVG 20010904//EN"
 "http://www.w3.org/TR/2001/REC-SVG-20010904/DTD/svg10.dtd">
<svg version="1.0" xmlns="http://www.w3.org/2000/svg"
 width="403.000000pt" height="153.000000pt" viewBox="0 0 403.000000 153.000000"
 preserveAspectRatio="xMidYMid meet">

<g transform="translate(0.000000,153.000000) scale(0.100000,-0.100000)"
fill="#000000" stroke="none">
<path d="M18 1034 c2 -274 5 -500 7 -502 7 -7 200 81 220 100 19 18 20 34 23
343 l3 325 249 0 c137 0 251 -4 254 -8 3 -5 -11 -17 -31 -26 -74 -35 -174
-107 -193 -138 -18 -30 -20 -51 -20 -250 0 -211 -1 -218 -22 -242 -14 -15
-107 -59 -243 -116 -121 -51 -227 -96 -235 -101 -9 -6 79 -8 235 -6 243 3 252
4 329 30 229 80 346 257 346 521 -1 291 -130 470 -387 537 -63 16 -123 21
-308 26 l-230 6 3 -499z"/>
<path d="M1350 1110 c-75 -12 -132 -33 -185 -70 -162 -112 -180 -383 -33 -515
154 -139 455 -138 601 3 62 59 90 123 95 218 7 132 -36 227 -134 295 -85 58
-227 87 -344 69z m165 -39 c108 -48 163 -204 136 -382 -24 -157 -88 -230 -207
-237 -83 -6 -141 21 -183 85 -41 62 -54 129 -49 259 4 116 24 182 71 233 53
58 156 77 232 42z"/>
<path d="M2225 1096 c-80 -20 -121 -42 -174 -91 -72 -68 -96 -127 -96 -245 0
-80 4 -103 25 -145 34 -68 90 -121 168 -158 60 -28 79 -31 182 -35 99 -4 124
-1 179 18 160 54 241 164 241 326 0 165 -113 296 -288 333 -68 14 -173 13
-237 -3z m225 -36 c65 -33 103 -103 120 -219 19 -137 -18 -291 -86 -351 -102
-89 -269 -51 -326 76 -29 66 -41 181 -28 272 22 163 93 242 217 242 44 0 76
-6 103 -20z"/>
<path d="M3598 1084 c-120 -37 -155 -157 -69 -243 20 -20 96 -67 169 -105 89
-47 145 -83 169 -109 32 -36 35 -44 30 -84 -9 -84 -78 -125 -173 -104 -59 13
-109 59 -120 109 -20 93 -36 112 -93 112 -35 0 -61 -23 -61 -54 0 -34 54 -112
98 -141 57 -38 124 -55 212 -55 132 0 217 38 251 114 24 54 24 100 -2 153 -25
52 -65 81 -224 161 -66 33 -133 74 -149 91 -74 78 1 163 124 141 50 -9 85 -41
101 -89 23 -72 77 -101 124 -65 19 14 19 15 0 50 -59 110 -237 164 -387 118z"/>
<path d="M2873 988 c9 -95 3 -458 -9 -516 l-6 -32 93 0 94 0 -3 214 -3 215 67
55 c74 61 111 73 170 57 22 -6 47 -11 57 -11 29 0 67 45 67 80 l0 30 -67 0
c-90 -1 -137 -23 -225 -107 l-71 -68 6 88 6 87 -92 0 -93 0 9 -92z"/>
<path d="M2290 178 l0 -52 -20 22 c-29 31 -89 30 -118 -1 -31 -33 -30 -90 3
-122 30 -31 82 -33 113 -5 18 17 22 18 22 5 0 -8 5 -15 10 -15 6 0 10 43 10
110 0 67 -4 110 -10 110 -5 0 -10 -23 -10 -52z m-25 -53 c30 -29 31 -45 7 -76
-36 -43 -122 -18 -122 36 0 59 71 85 115 40z"/>
<path d="M1490 199 c0 -12 -8 -23 -20 -26 -11 -3 -20 -12 -20 -19 0 -8 9 -14
20 -14 18 0 20 -7 20 -58 0 -64 11 -82 50 -82 32 0 50 17 49 45 0 11 -3 14 -6
7 -2 -7 -14 -17 -25 -23 -31 -17 -48 6 -48 62 0 48 1 49 30 49 20 0 30 5 30
15 0 10 -10 15 -30 15 -25 0 -30 4 -30 25 0 14 -4 25 -10 25 -5 0 -10 -9 -10
-21z"/>
<path d="M2507 213 c-13 -12 -7 -23 13 -23 11 0 20 7 20 15 0 15 -21 21 -33 8z"/>
<path d="M1154 162 c-19 -13 -23 -41 -9 -56 8 -8 32 -17 54 -21 56 -9 70 -29
36 -51 -21 -14 -30 -15 -51 -5 -14 6 -28 20 -31 31 -6 24 -23 16 -23 -10 0
-43 83 -66 128 -34 42 29 24 60 -44 77 -56 14 -72 42 -30 53 34 8 57 -1 63
-26 7 -28 23 -25 23 5 0 14 -8 29 -19 35 -23 12 -81 13 -97 2z"/>
<path d="M1774 155 c-11 -28 2 -114 21 -135 23 -26 65 -25 99 1 21 17 26 18
26 5 0 -9 5 -16 10 -16 6 0 10 33 10 80 0 92 -15 108 -22 24 -5 -63 -23 -84
-68 -84 -38 0 -50 18 -50 76 0 53 -15 80 -26 49z"/>
<path d="M2510 90 c0 -47 4 -80 10 -80 6 0 10 33 10 80 0 47 -4 80 -10 80 -6
0 -10 -33 -10 -80z"/>
<path d="M2750 150 c-42 -42 -33 -116 16 -139 104 -47 194 78 105 146 -26 20
-98 16 -121 -7z m100 -10 c50 -27 44 -90 -10 -108 -37 -13 -74 -2 -89 27 -16
29 -14 39 14 66 26 27 54 31 85 15z"/>
</g>
</svg>
