<svg version="1.0" xmlns="http://www.w3.org/2000/svg" width="537.333" height="204" viewBox="0 0 403 153"><path d="M1.8 49.6c.2 27.4.5 50 .7 50.2.7.7 20-8.1 22-10 1.9-1.8 2-3.4 2.3-34.3l.3-32.5H52c13.7 0 25.1.4 25.4.8.3.5-1.1 1.7-3.1 2.6-7.4 3.5-17.4 10.7-19.3 13.8-1.8 3-2 5.1-2 25 0 21.1-.1 21.8-2.2 24.2-1.4 1.5-10.7 5.9-24.3 11.6-12.1 5.1-22.7 9.6-23.5 10.1-.9.6 7.9.8 23.5.6 24.3-.3 25.2-.4 32.9-3C82.3 100.7 94 83 94 56.6c-.1-29.1-13-47-38.7-53.7C49 1.3 43 .8 24.5.3l-23-.6.3 49.9zM135 42c-7.5 1.2-13.2 3.3-18.5 7-16.2 11.2-18 38.3-3.3 51.5 15.4 13.9 45.5 13.8 60.1-.3 6.2-5.9 9-12.3 9.5-21.8.7-13.2-3.6-22.7-13.4-29.5-8.5-5.8-22.7-8.7-34.4-6.9zm16.5 3.9c10.8 4.8 16.3 20.4 13.6 38.2-2.4 15.7-8.8 23-20.7 23.7-8.3.6-14.1-2.1-18.3-8.5-4.1-6.2-5.4-12.9-4.9-25.9.4-11.6 2.4-18.2 7.1-23.3 5.3-5.8 15.6-7.7 23.2-4.2zm71-2.5c-8 2-12.1 4.2-17.4 9.1-7.2 6.8-9.6 12.7-9.6 24.5 0 8 .4 10.3 2.5 14.5 3.4 6.8 9 12.1 16.8 15.8 6 2.8 7.9 3.1 18.2 3.5 9.9.4 12.4.1 17.9-1.8 16-5.4 24.1-16.4 24.1-32.6 0-16.5-11.3-29.6-28.8-33.3-6.8-1.4-17.3-1.3-23.7.3zM245 47c6.5 3.3 10.3 10.3 12 21.9 1.9 13.7-1.8 29.1-8.6 35.1-10.2 8.9-26.9 5.1-32.6-7.6-2.9-6.6-4.1-18.1-2.8-27.2 2.2-16.3 9.3-24.2 21.7-24.2 4.4 0 7.6.6 10.3 2zm114.8-2.4c-12 3.7-15.5 15.7-6.9 24.3 2 2 9.6 6.7 16.9 10.5 8.9 4.7 14.5 8.3 16.9 10.9 3.2 3.6 3.5 4.4 3 8.4-.9 8.4-7.8 12.5-17.3 10.4-5.9-1.3-10.9-5.9-12-10.9-2-9.3-3.6-11.2-9.3-11.2-3.5 0-6.1 2.3-6.1 5.4 0 3.4 5.4 11.2 9.8 14.1 5.7 3.8 12.4 5.5 21.2 5.5 13.2 0 21.7-3.8 25.1-11.4 2.4-5.4 2.4-10-.2-15.3-2.5-5.2-6.5-8.1-22.4-16.1-6.6-3.3-13.3-7.4-14.9-9.1-7.4-7.8.1-16.3 12.4-14.1 5 .9 8.5 4.1 10.1 8.9 2.3 7.2 7.7 10.1 12.4 6.5 1.9-1.4 1.9-1.5 0-5-5.9-11-23.7-16.4-38.7-11.8zm-72.5 9.6c.9 9.5.3 45.8-.9 51.6l-.6 3.2h18.7l-.3-21.4-.3-21.5 6.7-5.5c7.4-6.1 11.1-7.3 17-5.7 2.2.6 4.7 1.1 5.7 1.1 2.9 0 6.7-4.5 6.7-8v-3h-6.7c-9 .1-13.7 2.3-22.5 10.7l-7.1 6.8.6-8.8.6-8.7h-18.5l.9 9.2zm-58.3 81v5.2l-2-2.2c-2.9-3.1-8.9-3-11.8.1-3.1 3.3-3 9 .3 12.2 3 3.1 8.2 3.3 11.3.5 1.8-1.7 2.2-1.8 2.2-.5 0 .8.5 1.5 1 1.5.6 0 1-4.3 1-11s-.4-11-1-11c-.5 0-1 2.3-1 5.2zm-2.5 5.3c3 2.9 3.1 4.5.7 7.6-3.6 4.3-12.2 1.8-12.2-3.6 0-5.9 7.1-8.5 11.5-4zm-77.5-7.4c0 1.2-.8 2.3-2 2.6-1.1.3-2 1.2-2 1.9 0 .8.9 1.4 2 1.4 1.8 0 2 .7 2 5.8 0 6.4 1.1 8.2 5 8.2 3.2 0 5-1.7 4.9-4.5 0-1.1-.3-1.4-.6-.7-.2.7-1.4 1.7-2.5 2.3-3.1 1.7-4.8-.6-4.8-6.2 0-4.8.1-4.9 3-4.9 2 0 3-.5 3-1.5s-1-1.5-3-1.5c-2.5 0-3-.4-3-2.5 0-1.4-.4-2.5-1-2.5-.5 0-1 .9-1 2.1zm101.7-1.4c-1.3 1.2-.7 2.3 1.3 2.3 1.1 0 2-.7 2-1.5 0-1.5-2.1-2.1-3.3-.8zm-135.3 5.1c-1.9 1.3-2.3 4.1-.9 5.6.8.8 3.2 1.7 5.4 2.1 5.6.9 7 2.9 3.6 5.1-2.1 1.4-3 1.5-5.1.5-1.4-.6-2.8-2-3.1-3.1-.6-2.4-2.3-1.6-2.3 1 0 4.3 8.3 6.6 12.8 3.4 4.2-2.9 2.4-6-4.4-7.7-5.6-1.4-7.2-4.2-3-5.3 3.4-.8 5.7.1 6.3 2.6.7 2.8 2.3 2.5 2.3-.5 0-1.4-.8-2.9-1.9-3.5-2.3-1.2-8.1-1.3-9.7-.2zm62 .7c-1.1 2.8.2 11.4 2.1 13.5 2.3 2.6 6.5 2.5 9.9-.1 2.1-1.7 2.6-1.8 2.6-.5 0 .9.5 1.6 1 1.6.6 0 1-3.3 1-8 0-9.2-1.5-10.8-2.2-2.4-.5 6.3-2.3 8.4-6.8 8.4-3.8 0-5-1.8-5-7.6 0-5.3-1.5-8-2.6-4.9zM251 144c0 4.7.4 8 1 8s1-3.3 1-8-.4-8-1-8-1 3.3-1 8zm24-6c-4.2 4.2-3.3 11.6 1.6 13.9 10.4 4.7 19.4-7.8 10.5-14.6-2.6-2-9.8-1.6-12.1.7zm10 1c5 2.7 4.4 9-1 10.8-3.7 1.3-7.4.2-8.9-2.7-1.6-2.9-1.4-3.9 1.4-6.6 2.6-2.7 5.4-3.1 8.5-1.5z"/></svg>